<svg width="1024" height="768" xmlns="http://www.w3.org/2000/svg">
 <!-- Created with Method Draw - http://github.com/duopixel/Method-Draw/ -->
 <g>
  <title>background</title>
  <rect fill="#fff" id="canvas_background" height="770" width="1026" y="-1" x="-1"/>
  <g display="none" overflow="visible" y="0" x="0" height="100%" width="100%" id="canvasGrid">
   <rect fill="url(#gridpattern)" stroke-width="0" y="0" x="0" height="100%" width="100%"/>
  </g>
 </g>
 <g>
  <title>Layer 1</title>
  <rect id="YG550H01_YC_0001" height="34" width="46" y="9.4375" x="10.5" stroke-width="1.5" stroke="#000" fill="#ffffff"/>
  <rect id="YG550H01_YC_0002" height="34" width="46" y="9.4375" x="10.5" stroke-width="1.5" stroke="#000" fill="#ffffff"/>
  <rect id="YG550H01_YC_0003" height="34" width="46" y="9.4375" x="10.5" stroke-width="1.5" stroke="#000" fill="#ffffff"/>
  <rect id="YG550H01_YC_0004" height="34" width="46" y="9.4375" x="69.736813" stroke-width="1.5" stroke="#000" fill="#ffffff"/>
  <rect id="YG550H01_YC_0005" height="34" width="46" y="9.4375" x="130.941387" stroke-width="1.5" stroke="#000" fill="#ffffff"/>
  <rect id="YG550H01_YC_0006" height="34" width="46" y="9.4375" x="189.975277" stroke-width="1.5" stroke="#000" fill="#ffffff"/>
  <rect id="YG550H01_YC_0007" height="34" width="46" y="9.4375" x="255.006039" stroke-width="1.5" stroke="#000" fill="#ffffff"/>
  <rect id="YG550H01_YC_0008" height="34" width="46" y="9.4375" x="321.036335" stroke-width="1.5" stroke="#000" fill="#ffffff"/>
  <rect id="YG550H01_YC_0009" height="34" width="46" y="9.4375" x="385.067577" stroke-width="1.5" stroke="#000" fill="#ffffff"/>
  <rect id="YG550H01_YC_0010" height="34" width="46" y="9.4375" x="452.134708" stroke-width="1.5" stroke="#000" fill="#ffffff"/>
  <rect id="YG550H01_YC_0011" height="34" width="46" y="9.4375" x="517.16547" stroke-width="1.5" stroke="#000" fill="#ffffff"/>
  <rect id="YG550H01_YC_0012" height="34" width="46" y="9.4375" x="582.196232" stroke-width="1.5" stroke="#000" fill="#ffffff"/>
  <rect id="YG550H01_YC_0013" height="34" width="46" y="9.4375" x="642.727215" stroke-width="1.5" stroke="#000" fill="#ffffff"/>
  <rect id="YG550H01_YC_0014" height="34" width="46" y="9.4375" x="706.012283" stroke-width="1.5" stroke="#000" fill="#ffffff"/>
  <rect id="YG550H01_YC_0015" height="34" width="46" y="9.4375" x="768.012283" stroke-width="1.5" stroke="#000" fill="#ffffff"/>
  <rect id="YG550H01_YC_0016" height="34" width="46" y="9.4375" x="831.210384" stroke-width="1.5" stroke="#000" fill="#ffffff"/>
  <rect id="YG550H01_YC_0017" height="34" width="46" y="9.4375" x="895.280659" stroke-width="1.5" stroke="#000" fill="#ffffff"/>
  <rect id="YG550H01_YC_0018" height="34" width="46" y="9.4375" x="957.312908" stroke-width="1.5" stroke="#000" fill="#ffffff"/>
  <rect id="YG550H01_YC_0019" height="34" width="46" y="55.611084" x="957.312908" stroke-width="1.5" stroke="#000" fill="#ffffff"/>
  <rect id="YG550H01_YC_0020" height="34" width="46" y="102.992516" x="87.135345" stroke-width="1.5" stroke="#000" fill="#ffffff"/>
  <rect id="YG550H01_YC_0021" height="34" width="46" y="148.003624" x="957.312908" stroke-width="1.5" stroke="#000" fill="#ffffff"/>
  <rect id="YG550H01_YC_0022" height="34" width="46" y="194.177208" x="574.176701" stroke-width="1.5" stroke="#000" fill="#ffffff"/>
  <rect id="YG550H01_YC_0023" height="34" width="46" y="240.068382" x="957.312908" stroke-width="1.5" stroke="#000" fill="#ffffff"/>
  <rect id="YG550H01_YC_0024" height="34" width="46" y="286.458035" x="957.312908" stroke-width="1.5" stroke="#000" fill="#ffffff"/>
  <rect id="YG550H01_YC_0025" height="34" width="46" y="332.458035" x="957.312908" stroke-width="1.5" stroke="#000" fill="#ffffff"/>
  <rect id="YG550H01_YC_0026" height="34" width="46" y="379.976452" x="957.312908" stroke-width="1.5" stroke="#000" fill="#ffffff"/>
  <rect id="YG550H01_YC_0027" height="34" width="46" y="425.98732" x="957.312908" stroke-width="1.5" stroke="#000" fill="#ffffff"/>
  <rect id="YG550H01_YC_0028" height="34" width="46" y="472.997955" x="957.312908" stroke-width="1.5" stroke="#000" fill="#ffffff"/>
  <rect id="YG550H01_YC_0029" height="34" width="46" y="518.274879" x="957.312908" stroke-width="1.5" stroke="#000" fill="#ffffff"/>
  <rect id="YG550H01_YC_0030" height="34" width="46" y="563.374767" x="957.312908" stroke-width="1.5" stroke="#000" fill="#ffffff"/>
  <rect id="YG550H01_YC_0031" height="34" width="46" y="607.781975" x="957.312908" stroke-width="1.5" stroke="#000" fill="#ffffff"/>
  <rect id="YG550H01_YC_0032" height="34" width="46" y="655.875633" x="957.312908" stroke-width="1.5" stroke="#000" fill="#ffffff"/>
  <rect id="YG550H01_YC_0033" height="34" width="46" y="706.234348" x="957.312908" stroke-width="1.5" stroke="#000" fill="#ffffff"/>
  <rect id="YG550H01_YC_0034" height="34" width="46" y="706.234348" x="901.312908" stroke-width="1.5" stroke="#000" fill="#ffffff"/>
  <rect id="YG550H01_YC_0035" height="34" width="46" y="706.234348" x="842.312908" stroke-width="1.5" stroke="#000" fill="#ffffff"/>
  <rect id="YG550H01_YC_0036" height="34" width="46" y="706.234348" x="786.277206" stroke-width="1.5" stroke="#000" fill="#ffffff"/>
  <rect id="YG550H01_YC_0037" height="34" width="46" y="706.234348" x="729.268436" stroke-width="1.5" stroke="#000" fill="#ffffff"/>
  <rect id="YG550H01_YC_0038" height="34" width="46" y="706.234348" x="672.23336" stroke-width="1.5" stroke="#000" fill="#ffffff"/>
  <rect id="YG550H01_YC_0039" height="34" width="46" y="706.234348" x="616.153061" stroke-width="1.5" stroke="#000" fill="#ffffff"/>
  <rect id="YG550H01_YC_0040" height="34" width="46" y="706.234348" x="558.075527" stroke-width="1.5" stroke="#000" fill="#ffffff"/>
  <rect id="YG550H01_YC_0041" height="34" width="46" y="706.234348" x="500.996635" stroke-width="1.5" stroke="#000" fill="#ffffff"/>
  <rect id="YG550H01_YC_0042" height="34" width="46" y="706.234348" x="442.962162" stroke-width="1.5" stroke="#000" fill="#ffffff"/>
  <rect id="YG550H01_YC_0043" height="34" width="46" y="706.234348" x="384.884628" stroke-width="1.5" stroke="#000" fill="#ffffff"/>
  <rect id="YG550H01_YC_0044" height="34" width="46" y="706.234348" x="329.657822" stroke-width="1.5" stroke="#000" fill="#ffffff"/>
  <rect id="YG550H01_YC_0045" height="34" width="46" y="706.234348" x="272.649052" stroke-width="1.5" stroke="#000" fill="#ffffff"/>
  <rect id="YG550H01_YC_0046" height="34" width="46" y="706.234348" x="214.649052" stroke-width="1.5" stroke="#000" fill="#ffffff"/>
  <rect id="YG550H01_YC_0047" height="34" width="46" y="706.234348" x="155.57283" stroke-width="1.5" stroke="#000" fill="#ffffff"/>
  <rect id="YG550H01_YC_0048" height="34" width="46" y="662.234348" x="554" stroke-width="1.5" stroke="#000" fill="#ffffff"/>
  <rect id="YG550H01_YC_0049" height="34" width="46" y="706.234348" x="98.353951" stroke-width="1.5" stroke="#000" fill="#ffffff"/>
  <rect id="YG550H01_YC_0050" height="34" width="46" y="706.234348" x="43.353951" stroke-width="1.5" stroke="#000" fill="#ffffff"/>
  <rect id="YG550H01_YC_0051" height="34" width="46" y="706.234348" x="43.353951" stroke-width="1.5" stroke="#000" fill="#ffffff"/>
  <rect id="YG550H01_YC_0052" height="34" width="46" y="662.234348" x="888.092644" stroke-width="1.5" stroke="#000" fill="#ffffff"/>
  <rect id="YG550H01_YC_0053" height="34" width="46" y="619.937775" x="888.092644" stroke-width="1.5" stroke="#000" fill="#ffffff"/>
  <rect id="YG550H01_YC_0054" height="34" width="46" y="577.925873" x="888.092644" stroke-width="1.5" stroke="#000" fill="#ffffff"/>
  <rect id="YG550H01_YC_0055" height="34" width="46" y="534.740227" x="888.092644" stroke-width="1.5" stroke="#000" fill="#ffffff"/>
  <rect id="YG550H01_YC_0056" height="34" width="46" y="492.728325" x="888.092644" stroke-width="1.5" stroke="#000" fill="#ffffff"/>
  <rect id="YG550H01_YC_0057" height="34" width="46" y="448.716961" x="888.092644" stroke-width="1.5" stroke="#000" fill="#ffffff"/>
  <rect id="YG550H01_YC_0058" height="34" width="46" y="404.535519" x="888.092644" stroke-width="1.5" stroke="#000" fill="#ffffff"/>
  <rect id="YG550H01_YC_0059" height="34" width="46" y="360.433365" x="887.092644" stroke-width="1.5" stroke="#000" fill="#ffffff"/>
  <rect id="YG550H01_YC_0060" height="34" width="46" y="317.421738" x="172.562046" stroke-width="1.5" stroke="#000" fill="#ffffff"/>
  <rect id="YG550H01_YC_0061" height="34" width="46" y="316.421738" x="222.037464" stroke-width="1.5" stroke="#000" fill="#ffffff"/>
  <rect id="YG550H01_YC_0062" height="34" width="46" y="231.236092" x="904.598705" stroke-width="1.5" stroke="#000" fill="#ffffff"/>
  <rect id="YG550H01_YC_0063" height="34" width="46" y="189.188499" x="518.931618" stroke-width="1.5" stroke="#000" fill="#ffffff"/>
  <rect id="YG550H01_YC_0064" height="34" width="46" y="144.177391" x="877.364895" stroke-width="1.5" stroke="#000" fill="#ffffff"/>
  <rect id="YG550H01_YC_0065" height="34" width="46" y="99.132969" x="15.353951" stroke-width="1.5" stroke="#000" fill="#ffffff"/>
  <rect id="YG550H01_YC_0066" height="34" width="46" y="56.132969" x="15.353951" stroke-width="1.5" stroke="#000" fill="#ffffff"/>
  <rect id="YG550H01_YC_0067" height="34" width="46" y="56.132969" x="69.363209" stroke-width="1.5" stroke="#000" fill="#ffffff"/>
  <rect id="YG550H01_YC_0068" height="34" width="46" y="56.132969" x="126.371979" stroke-width="1.5" stroke="#000" fill="#ffffff"/>
  <rect id="YG550H01_YC_0069" height="34" width="46" y="56.132969" x="182.452278" stroke-width="1.5" stroke="#000" fill="#ffffff"/>
  <rect id="YG550H01_YC_0070" height="34" width="46" y="56.132969" x="238.772789" stroke-width="1.5" stroke="#000" fill="#ffffff"/>
  <rect id="YG550H01_YC_0071" height="34" width="46" y="56.132969" x="292.782047" stroke-width="1.5" stroke="#000" fill="#ffffff"/>
  <rect id="YG550H01_YC_0072" height="34" width="46" y="56.132969" x="348.790974" stroke-width="1.5" stroke="#000" fill="#ffffff"/>
  <rect id="YG550H01_YC_0073" height="34" width="46" y="56.132969" x="404.790974" stroke-width="1.5" stroke="#000" fill="#ffffff"/>
  <rect id="YG550H01_YC_0074" height="34" width="46" y="56.132969" x="460.826675" stroke-width="1.5" stroke="#000" fill="#ffffff"/>
  <rect id="YG550H01_YC_0075" height="34" width="46" y="56.132969" x="519.835148" stroke-width="1.5" stroke="#000" fill="#ffffff"/>
  <rect id="YG550H01_YC_0076" height="34" width="46" y="56.132969" x="574.844238" stroke-width="1.5" stroke="#000" fill="#ffffff"/>
  <rect id="YG550H01_YC_0077" height="34" width="46" y="56.132969" x="632.852859" stroke-width="1.5" stroke="#000" fill="#ffffff"/>
  <rect id="YG550H01_YC_0078" height="34" width="46" y="56.132969" x="688.079666" stroke-width="1.5" stroke="#000" fill="#ffffff"/>
  <rect id="YG550H01_YC_0079" height="34" width="46" y="56.132969" x="746.294785" stroke-width="1.5" stroke="#000" fill="#ffffff"/>
  <rect id="YG550H01_YC_0080" height="34" width="46" y="56.132969" x="803.434963" stroke-width="1.5" stroke="#000" fill="#ffffff"/>
  <rect id="YG550H01_YC_0081" height="34" width="46" y="56.132969" x="860.575142" stroke-width="1.5" stroke="#000" fill="#ffffff"/>
  <rect id="YG550H01_YC_0082" height="34" width="46" y="102.992516" x="957.312908" stroke-width="1.5" stroke="#000" fill="#ffffff"/>
  <rect id="YG550H01_YC_0083" height="34" width="46" y="102.992516" x="903.312908" stroke-width="1.5" stroke="#000" fill="#ffffff"/>
  <rect id="YG550H01_YC_0084" height="34" width="46" y="102.992516" x="849.30365" stroke-width="1.5" stroke="#000" fill="#ffffff"/>
  <rect id="YG550H01_YC_0085" height="34" width="46" y="102.992516" x="796.265926" stroke-width="1.5" stroke="#000" fill="#ffffff"/>
  <rect id="YG550H01_YC_0086" height="34" width="46" y="102.992516" x="743.256493" stroke-width="1.5" stroke="#000" fill="#ffffff"/>
  <rect id="YG550H01_YC_0087" height="34" width="46" y="102.992516" x="691.24688" stroke-width="1.5" stroke="#000" fill="#ffffff"/>
  <rect id="YG550H01_YC_0088" height="34" width="46" y="102.992516" x="637.24688" stroke-width="1.5" stroke="#000" fill="#ffffff"/>
  <rect id="YG550H01_YC_0089" height="34" width="46" y="102.992516" x="584.237446" stroke-width="1.5" stroke="#000" fill="#ffffff"/>
  <rect id="YG550H01_YC_0090" height="34" width="46" y="102.992516" x="529.092182" stroke-width="1.5" stroke="#000" fill="#ffffff"/>
  <rect id="YG550H01_YC_0091" height="34" width="46" y="102.992516" x="475.082924" stroke-width="1.5" stroke="#000" fill="#ffffff"/>
  <rect id="YG550H01_YC_0092" height="34" width="46" y="102.992516" x="420.073833" stroke-width="1.5" stroke="#000" fill="#ffffff"/>
  <rect id="YG550H01_YC_0093" height="34" width="46" y="102.992516" x="367.073833" stroke-width="1.5" stroke="#000" fill="#ffffff"/>
  <rect id="YG550H01_YC_0094" height="34" width="46" y="102.992516" x="313.036808" stroke-width="1.5" stroke="#000" fill="#ffffff"/>
  <rect id="YG550H01_YC_0095" height="34" width="46" y="102.992516" x="259.436436" stroke-width="1.5" stroke="#000" fill="#ffffff"/>
  <rect id="YG550H01_YC_0096" height="34" width="46" y="102.992516" x="204.354679" stroke-width="1.5" stroke="#000" fill="#ffffff"/>
  <rect id="YG550H01_YC_0097" height="34" width="46" y="102.992516" x="150.206734" stroke-width="1.5" stroke="#000" fill="#ffffff"/>
  <rect id="YG550H01_YC_0098" height="34" width="46" y="144.177391" x="15.353951" stroke-width="1.5" stroke="#000" fill="#ffffff"/>
  <rect id="YG550H01_YC_0099" height="34" width="46" y="144.177391" x="73.362572" stroke-width="1.5" stroke="#000" fill="#ffffff"/>
  <rect id="YG550H01_YC_0100" height="34" width="46" y="144.177391" x="132.371044" stroke-width="1.5" stroke="#000" fill="#ffffff"/>
  <rect id="YG550H01_YC_0101" height="34" width="46" y="144.177391" x="192.371044" stroke-width="1.5" stroke="#000" fill="#ffffff"/>
  <rect id="YG550H01_YC_0102" height="34" width="46" y="144.177391" x="247.380135" stroke-width="1.5" stroke="#000" fill="#ffffff"/>
  <rect id="YG550H01_YC_0103" height="34" width="46" y="144.177391" x="303.415836" stroke-width="1.5" stroke="#000" fill="#ffffff"/>
  <rect id="YG550H01_YC_0104" height="34" width="46" y="144.177391" x="362.424309" stroke-width="1.5" stroke="#000" fill="#ffffff"/>
  <rect id="YG550H01_YC_0105" height="34" width="46" y="144.177391" x="424.496845" stroke-width="1.5" stroke="#000" fill="#ffffff"/>
  <rect id="YG550H01_YC_0106" height="34" width="46" y="144.177391" x="485.791218" stroke-width="1.5" stroke="#000" fill="#ffffff"/>
  <rect id="YG550H01_YC_0107" height="34" width="46" y="144.177391" x="542.111729" stroke-width="1.5" stroke="#000" fill="#ffffff"/>
  <rect id="YG550H01_YC_0108" height="34" width="46" y="144.177391" x="597.555393" stroke-width="1.5" stroke="#000" fill="#ffffff"/>
  <rect id="YG550H01_YC_0109" height="34" width="46" y="144.177391" x="652.63715" stroke-width="1.5" stroke="#000" fill="#ffffff"/>
  <rect id="YG550H01_YC_0110" height="34" width="46" y="144.177391" x="709.777328" stroke-width="1.5" stroke="#000" fill="#ffffff"/>
  <rect id="YG550H01_YC_0111" height="34" width="46" y="144.177391" x="765.920002" stroke-width="1.5" stroke="#000" fill="#ffffff"/>
  <rect id="YG550H01_YC_0112" height="34" width="46" y="144.177391" x="820.929092" stroke-width="1.5" stroke="#000" fill="#ffffff"/>
  <rect id="YG550H01_YC_0113" height="34" width="46" y="194.177208" x="957.312908" stroke-width="1.5" stroke="#000" fill="#ffffff"/>
  <rect id="YG550H01_YC_0114" height="34" width="46" y="194.177208" x="903.30365" stroke-width="1.5" stroke="#000" fill="#ffffff"/>
  <rect id="YG550H01_YC_0115" height="34" width="46" y="194.177208" x="850.265926" stroke-width="1.5" stroke="#000" fill="#ffffff"/>
  <rect id="YG550H01_YC_0116" height="34" width="46" y="194.177208" x="796.265926" stroke-width="1.5" stroke="#000" fill="#ffffff"/>
  <rect id="YG550H01_YC_0117" height="34" width="46" y="194.177208" x="740.257" stroke-width="1.5" stroke="#000" fill="#ffffff"/>
  <rect id="YG550H01_YC_0118" height="34" width="46" y="194.177208" x="684.176701" stroke-width="1.5" stroke="#000" fill="#ffffff"/>
  <rect id="YG550H01_YC_0119" height="34" width="46" y="194.177208" x="630.176701" stroke-width="1.5" stroke="#000" fill="#ffffff"/>
  <rect id="YG550H01_YC_0120" height="34" width="46" y="189.188499" x="15.353951" stroke-width="1.5" stroke="#000" fill="#ffffff"/>
  <rect id="YG550H01_YC_0121" height="34" width="46" y="189.188499" x="71.389652" stroke-width="1.5" stroke="#000" fill="#ffffff"/>
  <rect id="YG550H01_YC_0122" height="34" width="46" y="189.188499" x="133.389652" stroke-width="1.5" stroke="#000" fill="#ffffff"/>
  <rect id="YG550H01_YC_0123" height="34" width="46" y="189.188499" x="189.469952" stroke-width="1.5" stroke="#000" fill="#ffffff"/>
  <rect id="YG550H01_YC_0124" height="34" width="46" y="189.188499" x="252.54134" stroke-width="1.5" stroke="#000" fill="#ffffff"/>
  <rect id="YG550H01_YC_0125" height="34" width="46" y="189.188499" x="322.569904" stroke-width="1.5" stroke="#000" fill="#ffffff"/>
  <rect id="YG550H01_YC_0126" height="34" width="46" y="189.188499" x="392.634159" stroke-width="1.5" stroke="#000" fill="#ffffff"/>
  <rect id="YG550H01_YC_0127" height="34" width="46" y="189.188499" x="456.641972" stroke-width="1.5" stroke="#000" fill="#ffffff"/>
  <rect id="YG550H01_YC_0128" height="34" width="46" y="231.236092" x="15.353951" stroke-width="1.5" stroke="#000" fill="#ffffff"/>
  <rect id="YG550H01_YC_0129" height="34" width="46" y="231.236092" x="74.362423" stroke-width="1.5" stroke="#000" fill="#ffffff"/>
  <rect id="YG550H01_YC_0130" height="34" width="46" y="231.236092" x="135.370621" stroke-width="1.5" stroke="#000" fill="#ffffff"/>
  <rect id="YG550H01_YC_0131" height="34" width="46" y="231.236092" x="205.434875" stroke-width="1.5" stroke="#000" fill="#ffffff"/>
  <rect id="YG550H01_YC_0132" height="34" width="46" y="231.236092" x="269.932938" stroke-width="1.5" stroke="#000" fill="#ffffff"/>
  <rect id="YG550H01_YC_0133" height="34" width="46" y="231.236092" x="325.941864" stroke-width="1.5" stroke="#000" fill="#ffffff"/>
  <rect id="YG550H01_YC_0134" height="34" width="46" y="231.236092" x="383.976337" stroke-width="1.5" stroke="#000" fill="#ffffff"/>
  <rect id="YG550H01_YC_0135" height="34" width="46" y="231.236092" x="441.195217" stroke-width="1.5" stroke="#000" fill="#ffffff"/>
  <rect id="YG550H01_YC_0136" height="34" width="46" y="231.236092" x="496.521523" stroke-width="1.5" stroke="#000" fill="#ffffff"/>
  <rect id="YG550H01_YC_0137" height="34" width="46" y="231.236092" x="552.601822" stroke-width="1.5" stroke="#000" fill="#ffffff"/>
  <rect id="YG550H01_YC_0138" height="34" width="46" y="231.236092" x="608.895695" stroke-width="1.5" stroke="#000" fill="#ffffff"/>
  <rect id="YG550H01_YC_0139" height="34" width="46" y="231.236092" x="669.928474" stroke-width="1.5" stroke="#000" fill="#ffffff"/>
  <rect id="YG550H01_YC_0140" height="34" width="46" y="231.236092" x="732.578297" stroke-width="1.5" stroke="#000" fill="#ffffff"/>
  <rect id="YG550H01_YC_0141" height="34" width="46" y="231.236092" x="787.904602" stroke-width="1.5" stroke="#000" fill="#ffffff"/>
  <rect id="YG550H01_YC_0142" height="34" width="46" y="231.236092" x="845.463268" stroke-width="1.5" stroke="#000" fill="#ffffff"/>
  <rect id="YG550H01_YC_0143" height="34" width="46" y="274.421738" x="15.353951" stroke-width="1.5" stroke="#000" fill="#ffffff"/>
  <rect id="YG550H01_YC_0144" height="34" width="46" y="231.236092" x="904.598705" stroke-width="1.5" stroke="#000" fill="#ffffff"/>
  <rect id="YG550H01_YC_0145" height="34" width="46" y="274.421738" x="15.353951" stroke-width="1.5" stroke="#000" fill="#ffffff"/>
  <rect id="YG550H01_YC_0146" height="34" width="46" y="274.421738" x="70.353951" stroke-width="1.5" stroke="#000" fill="#ffffff"/>
  <rect id="YG550H01_YC_0147" height="34" width="46" y="274.421738" x="125.680256" stroke-width="1.5" stroke="#000" fill="#ffffff"/>
  <rect id="YG550H01_YC_0148" height="34" width="46" y="274.421738" x="179.763527" stroke-width="1.5" stroke="#000" fill="#ffffff"/>
  <rect id="YG550H01_YC_0149" height="34" width="46" y="274.421738" x="234.845284" stroke-width="1.5" stroke="#000" fill="#ffffff"/>
  <rect id="YG550H01_YC_0150" height="34" width="46" y="274.421738" x="289.990547" stroke-width="1.5" stroke="#000" fill="#ffffff"/>
  <rect id="YG550H01_YC_0151" height="34" width="46" y="274.421738" x="344.322857" stroke-width="1.5" stroke="#000" fill="#ffffff"/>
  <rect id="YG550H01_YC_0152" height="34" width="46" y="274.421738" x="400.46553" stroke-width="1.5" stroke="#000" fill="#ffffff"/>
  <rect id="YG550H01_YC_0153" height="34" width="46" y="274.421738" x="453.616261" stroke-width="1.5" stroke="#000" fill="#ffffff"/>
  <rect id="YG550H01_YC_0154" height="34" width="46" y="274.421738" x="506.954803" stroke-width="1.5" stroke="#000" fill="#ffffff"/>
  <rect id="YG550H01_YC_0155" height="34" width="46" y="274.421738" x="560.105534" stroke-width="1.5" stroke="#000" fill="#ffffff"/>
  <rect id="YG550H01_YC_0156" height="34" width="46" y="274.421738" x="614.437843" stroke-width="1.5" stroke="#000" fill="#ffffff"/>
  <rect id="YG550H01_YC_0157" height="34" width="46" y="274.421738" x="667.447277" stroke-width="1.5" stroke="#000" fill="#ffffff"/>
  <rect id="YG550H01_YC_0158" height="34" width="46" y="274.421738" x="720.447277" stroke-width="1.5" stroke="#000" fill="#ffffff"/>
  <rect id="YG550H01_YC_0159" height="34" width="46" y="274.421738" x="772.447277" stroke-width="1.5" stroke="#000" fill="#ffffff"/>
  <rect id="YG550H01_YC_0160" height="34" width="46" y="274.421738" x="825.447277" stroke-width="1.5" stroke="#000" fill="#ffffff"/>
  <rect id="YG550H01_YC_0161" height="34" width="46" y="274.421738" x="879.595222" stroke-width="1.5" stroke="#000" fill="#ffffff"/>
  <rect id="YG550H01_YC_0162" height="34" width="46" y="316.421738" x="905.595222" stroke-width="1.5" stroke="#000" fill="#ffffff"/>
  <rect id="YG550H01_YC_0163" height="34" width="46" y="316.421738" x="854.595222" stroke-width="1.5" stroke="#000" fill="#ffffff"/>
  <rect id="YG550H01_YC_0164" height="34" width="46" y="316.421738" x="802.595222" stroke-width="1.5" stroke="#000" fill="#ffffff"/>
  <rect id="YG550H01_YC_0165" height="34" width="46" y="316.421738" x="749.585789" stroke-width="1.5" stroke="#000" fill="#ffffff"/>
  <rect id="YG550H01_YC_0166" height="34" width="46" y="316.421738" x="698.429165" stroke-width="1.5" stroke="#000" fill="#ffffff"/>
  <rect id="YG550H01_YC_0167" height="34" width="46" y="316.421738" x="646.275547" stroke-width="1.5" stroke="#000" fill="#ffffff"/>
  <rect id="YG550H01_YC_0168" height="34" width="46" y="316.421738" x="594.121929" stroke-width="1.5" stroke="#000" fill="#ffffff"/>
  <rect id="YG550H01_YC_0169" height="34" width="46" y="316.421738" x="541.112495" stroke-width="1.5" stroke="#000" fill="#ffffff"/>
  <rect id="YG550H01_YC_0170" height="34" width="46" y="316.421738" x="487.112495" stroke-width="1.5" stroke="#000" fill="#ffffff"/>
  <rect id="YG550H01_YC_0171" height="34" width="46" y="316.421738" x="432.112495" stroke-width="1.5" stroke="#000" fill="#ffffff"/>
  <rect id="YG550H01_YC_0172" height="34" width="46" y="316.421738" x="379.103062" stroke-width="1.5" stroke="#000" fill="#ffffff"/>
  <rect id="YG550H01_YC_0173" height="34" width="46" y="316.421738" x="326.018223" stroke-width="1.5" stroke="#000" fill="#ffffff"/>
  <rect id="YG550H01_YC_0174" height="34" width="46" y="316.421738" x="274.047077" stroke-width="1.5" stroke="#000" fill="#ffffff"/>
  <rect id="YG550H01_YC_0175" height="34" width="46" y="317.421738" x="15.353951" stroke-width="1.5" stroke="#000" fill="#ffffff"/>
  <rect id="YG550H01_YC_0176" height="34" width="46" y="317.421738" x="68.438789" stroke-width="1.5" stroke="#000" fill="#ffffff"/>
  <rect id="YG550H01_YC_0177" height="34" width="46" y="317.421738" x="122.52206" stroke-width="1.5" stroke="#000" fill="#ffffff"/>
  <rect id="YG550H01_YC_0178" height="34" width="46" y="662.234348" x="15.353951" stroke-width="1.5" stroke="#000" fill="#ffffff"/>
  <rect id="YG550H01_YC_0179" height="34" width="46" y="619.937775" x="15.353951" stroke-width="1.5" stroke="#000" fill="#ffffff"/>
  <rect id="YG550H01_YC_0180" height="34" width="46" y="577.925873" x="15.353951" stroke-width="1.5" stroke="#000" fill="#ffffff"/>
  <rect id="YG550H01_YC_0181" height="34" width="46" y="534.740227" x="15.353951" stroke-width="1.5" stroke="#000" fill="#ffffff"/>
  <rect id="YG550H01_YC_0182" height="34" width="46" y="492.728325" x="15.353951" stroke-width="1.5" stroke="#000" fill="#ffffff"/>
  <rect id="YG550H01_YC_0183" height="34" width="46" y="448.716961" x="15.353951" stroke-width="1.5" stroke="#000" fill="#ffffff"/>
  <rect id="YG550H01_YC_0184" height="34" width="46" y="404.535519" x="15.353951" stroke-width="1.5" stroke="#000" fill="#ffffff"/>
  <rect id="YG550H01_YC_0185" height="34" width="46" y="360.433365" x="14.353951" stroke-width="1.5" stroke="#000" fill="#ffffff"/>
  <rect id="YG550H01_YC_0186" height="34" width="46" y="662.234348" x="67.965736" stroke-width="1.5" stroke="#000" fill="#ffffff"/>
  <rect id="YG550H01_YC_0187" height="34" width="46" y="619.937775" x="67.965736" stroke-width="1.5" stroke="#000" fill="#ffffff"/>
  <rect id="YG550H01_YC_0188" height="34" width="46" y="577.925873" x="67.965736" stroke-width="1.5" stroke="#000" fill="#ffffff"/>
  <rect id="YG550H01_YC_0190" height="34" width="46" y="492.728325" x="67.965736" stroke-width="1.5" stroke="#000" fill="#ffffff"/>
  <rect id="YG550H01_YC_0193" height="34" width="46" y="360.433365" x="66.965736" stroke-width="1.5" stroke="#000" fill="#ffffff"/>
  <rect id="YG550H01_YC_0194" height="34" width="46" y="662.234348" x="119.965736" stroke-width="1.5" stroke="#000" fill="#ffffff"/>
  <rect id="YG550H01_YC_0195" height="34" width="46" y="619.937775" x="119.965736" stroke-width="1.5" stroke="#000" fill="#ffffff"/>
  <rect id="YG550H01_YC_0196" height="34" width="46" y="577.925873" x="119.965736" stroke-width="1.5" stroke="#000" fill="#ffffff"/>
  <rect id="YG550H01_YC_0197" height="34" width="46" y="534.740227" x="119.965736" stroke-width="1.5" stroke="#000" fill="#ffffff"/>
  <rect id="YG550H01_YC_0198" height="34" width="46" y="492.728325" x="119.965736" stroke-width="1.5" stroke="#000" fill="#ffffff"/>
  <rect id="YG550H01_YC_0201" height="34" width="46" y="360.433365" x="118.965736" stroke-width="1.5" stroke="#000" fill="#ffffff"/>
  <rect id="YG550H01_YC_0202" height="34" width="46" y="662.234348" x="171.975349" stroke-width="1.5" stroke="#000" fill="#ffffff"/>
  <rect id="YG550H01_YC_0203" height="34" width="46" y="619.937775" x="171.975349" stroke-width="1.5" stroke="#000" fill="#ffffff"/>
  <rect id="YG550H01_YC_0204" height="34" width="46" y="577.925873" x="171.975349" stroke-width="1.5" stroke="#000" fill="#ffffff"/>
  <rect id="YG550H01_YC_0205" height="34" width="46" y="534.740227" x="171.975349" stroke-width="1.5" stroke="#000" fill="#ffffff"/>
  <rect id="YG550H01_YC_0206" height="34" width="46" y="492.728325" x="171.975349" stroke-width="1.5" stroke="#000" fill="#ffffff"/>
  <rect id="YG550H01_YC_0209" height="34" width="46" y="360.433365" x="170.975349" stroke-width="1.5" stroke="#000" fill="#ffffff"/>
  <rect id="YG550H01_YC_0210" height="34" width="46" y="662.234348" x="226.98444" stroke-width="1.5" stroke="#000" fill="#ffffff"/>
  <rect id="YG550H01_YC_0211" height="34" width="46" y="619.937775" x="226.98444" stroke-width="1.5" stroke="#000" fill="#ffffff"/>
  <rect id="YG550H01_YC_0212" height="34" width="46" y="577.925873" x="226.98444" stroke-width="1.5" stroke="#000" fill="#ffffff"/>
  <rect id="YG550H01_YC_0213" height="34" width="46" y="534.740227" x="226.98444" stroke-width="1.5" stroke="#000" fill="#ffffff"/>
  <rect id="YG550H01_YC_0214" height="34" width="46" y="492.728325" x="226.98444" stroke-width="1.5" stroke="#000" fill="#ffffff"/>
  <rect id="YG550H01_YC_0217" height="34" width="46" y="360.433365" x="225.98444" stroke-width="1.5" stroke="#000" fill="#ffffff"/>
  <rect id="YG550H01_YC_0218" height="34" width="46" y="662.234348" x="281.067711" stroke-width="1.5" stroke="#000" fill="#ffffff"/>
  <rect id="YG550H01_YC_0219" height="34" width="46" y="619.937775" x="281.067711" stroke-width="1.5" stroke="#000" fill="#ffffff"/>
  <rect id="YG550H01_YC_0220" height="34" width="46" y="577.925873" x="281.067711" stroke-width="1.5" stroke="#000" fill="#ffffff"/>
  <rect id="YG550H01_YC_0221" height="34" width="46" y="534.740227" x="281.067711" stroke-width="1.5" stroke="#000" fill="#ffffff"/>
  <rect id="YG550H01_YC_0222" height="34" width="46" y="492.728325" x="281.067711" stroke-width="1.5" stroke="#000" fill="#ffffff"/>
  <rect id="YG550H01_YC_0225" height="34" width="46" y="360.433365" x="280.067711" stroke-width="1.5" stroke="#000" fill="#ffffff"/>
  <rect id="YG550H01_YC_0226" height="34" width="46" y="662.234348" x="337.067711" stroke-width="1.5" stroke="#000" fill="#ffffff"/>
  <rect id="YG550H01_YC_0227" height="34" width="46" y="619.937775" x="337.067711" stroke-width="1.5" stroke="#000" fill="#ffffff"/>
  <rect id="YG550H01_YC_0228" height="34" width="46" y="577.925873" x="337.067711" stroke-width="1.5" stroke="#000" fill="#ffffff"/>
  <rect id="YG550H01_YC_0229" height="34" width="46" y="534.740227" x="337.067711" stroke-width="1.5" stroke="#000" fill="#ffffff"/>
  <rect id="YG550H01_YC_0230" height="34" width="46" y="492.728325" x="337.067711" stroke-width="1.5" stroke="#000" fill="#ffffff"/>
  <rect id="YG550H01_YC_0233" height="34" width="46" y="360.433365" x="336.067711" stroke-width="1.5" stroke="#000" fill="#ffffff"/>
  <rect id="YG550H01_YC_0234" height="34" width="46" y="662.234348" x="392.067711" stroke-width="1.5" stroke="#000" fill="#ffffff"/>
  <rect id="YG550H01_YC_0235" height="34" width="46" y="619.937775" x="392.067711" stroke-width="1.5" stroke="#000" fill="#ffffff"/>
  <rect id="YG550H01_YC_0236" height="34" width="46" y="577.925873" x="392.067711" stroke-width="1.5" stroke="#000" fill="#ffffff"/>
  <rect id="YG550H01_YC_0237" height="34" width="46" y="534.740227" x="392.067711" stroke-width="1.5" stroke="#000" fill="#ffffff"/>
  <rect id="YG550H01_YC_0238" height="34" width="46" y="492.728325" x="392.067711" stroke-width="1.5" stroke="#000" fill="#ffffff"/>
  <rect id="YG550H01_YC_0242" height="34" width="46" y="662.234348" x="445.668083" stroke-width="1.5" stroke="#000" fill="#ffffff"/>
  <rect id="YG550H01_YC_0243" height="34" width="46" y="619.937775" x="445.668083" stroke-width="1.5" stroke="#000" fill="#ffffff"/>
  <rect id="YG550H01_YC_0244" height="34" width="46" y="577.925873" x="445.668083" stroke-width="1.5" stroke="#000" fill="#ffffff"/>
  <rect id="YG550H01_YC_0245" height="34" width="46" y="534.740227" x="445.668083" stroke-width="1.5" stroke="#000" fill="#ffffff"/>
  <rect id="YG550H01_YC_0246" height="34" width="46" y="492.728325" x="445.668083" stroke-width="1.5" stroke="#000" fill="#ffffff"/>
  <rect id="YG550H01_YC_0250" height="34" width="46" y="662.234348" x="499.816029" stroke-width="1.5" stroke="#000" fill="#ffffff"/>
  <rect id="YG550H01_YC_0251" height="34" width="46" y="619.937775" x="499.816029" stroke-width="1.5" stroke="#000" fill="#ffffff"/>
  <rect id="YG550H01_YC_0252" height="34" width="46" y="577.925873" x="499.816029" stroke-width="1.5" stroke="#000" fill="#ffffff"/>
  <rect id="YG550H01_YC_0253" height="34" width="46" y="534.740227" x="499.816029" stroke-width="1.5" stroke="#000" fill="#ffffff"/>
  <rect id="YG550H01_YC_0254" height="34" width="46" y="492.728325" x="499.816029" stroke-width="1.5" stroke="#000" fill="#ffffff"/>
  <rect id="YG550H01_YC_0255" height="34" width="46" y="448.716961" x="499.816029" stroke-width="1.5" stroke="#000" fill="#ffffff"/>
  <rect id="YG550H01_YC_0241" height="34" width="46" y="360.433365" x="391.067711" stroke-width="1.5" stroke="#000" fill="#ffffff"/>
  <rect id="YG550H01_YC_0249" height="34" width="46" y="360.433365" x="444.668083" stroke-width="1.5" stroke="#000" fill="#ffffff"/>
  <rect id="YG550H01_YC_0192" height="34" width="46" y="404.535519" x="67.965736" stroke-width="1.5" stroke="#000" fill="#ffffff"/>
  <rect id="YG550H01_YC_0200" height="34" width="46" y="404.535519" x="119.965736" stroke-width="1.5" stroke="#000" fill="#ffffff"/>
  <rect id="YG550H01_YC_0208" height="34" width="46" y="404.535519" x="171.975349" stroke-width="1.5" stroke="#000" fill="#ffffff"/>
  <rect id="YG550H01_YC_0216" height="34" width="46" y="404.535519" x="226.98444" stroke-width="1.5" stroke="#000" fill="#ffffff"/>
  <rect id="YG550H01_YC_0224" height="34" width="46" y="404.535519" x="281.067711" stroke-width="1.5" stroke="#000" fill="#ffffff"/>
  <rect id="YG550H01_YC_0232" height="34" width="46" y="404.535519" x="337.067711" stroke-width="1.5" stroke="#000" fill="#ffffff"/>
  <rect id="YG550H01_YC_0240" height="34" width="46" y="404.535519" x="392.067711" stroke-width="1.5" stroke="#000" fill="#ffffff"/>
  <rect id="YG550H01_YC_0248" height="34" width="46" y="404.535519" x="445.668083" stroke-width="1.5" stroke="#000" fill="#ffffff"/>
  <rect id="YG550H01_YC_0191" height="34" width="46" y="448.716961" x="67.965736" stroke-width="1.5" stroke="#000" fill="#ffffff"/>
  <rect id="YG550H01_YC_0199" height="34" width="46" y="448.716961" x="119.965736" stroke-width="1.5" stroke="#000" fill="#ffffff"/>
  <rect id="YG550H01_YC_0207" height="34" width="46" y="448.716961" x="171.975349" stroke-width="1.5" stroke="#000" fill="#ffffff"/>
  <rect id="YG550H01_YC_0215" height="34" width="46" y="448.716961" x="226.98444" stroke-width="1.5" stroke="#000" fill="#ffffff"/>
  <rect id="YG550H01_YC_0223" height="34" width="46" y="448.716961" x="281.067711" stroke-width="1.5" stroke="#000" fill="#ffffff"/>
  <rect id="YG550H01_YC_0231" height="34" width="46" y="448.716961" x="337.067711" stroke-width="1.5" stroke="#000" fill="#ffffff"/>
  <rect id="YG550H01_YC_0239" height="34" width="46" y="448.716961" x="392.067711" stroke-width="1.5" stroke="#000" fill="#ffffff"/>
  <rect id="YG550H01_YC_0247" height="34" width="46" y="448.716961" x="445.668083" stroke-width="1.5" stroke="#000" fill="#ffffff"/>
  
  <!-- <rect id="YG550H01_YC_0260" height="34" width="46" y="577.925873" x="554.897785" stroke-width="1.5" stroke="#000" fill="#ffffff"/>
  <rect id="YG550H01_YC_0268" height="34" width="46" y="577.925873" x="608.907043" stroke-width="1.5" stroke="#000" fill="#ffffff"/>
  <rect id="YG550H01_YC_0276" height="34" width="46" y="577.925873" x="663.138031" stroke-width="1.5" stroke="#000" fill="#ffffff"/>
  <rect id="YG550H01_YC_0284" height="34" width="46" y="577.925873" x="718.86953" stroke-width="1.5" stroke="#000" fill="#ffffff"/>
  <rect id="YG550H01_YC_0292" height="34" width="46" y="577.925873" x="771.10936" stroke-width="1.5" stroke="#000" fill="#ffffff"/>
  <rect id="YG550H01_YC_0300" height="34" width="46" y="577.925873" x="825.698734" stroke-width="1.5" stroke="#000" fill="#ffffff"/> -->
  <!-- <rect id="YG550H01_YC_0261" height="34" width="46" y="534.740227" x="554.897785" stroke-width="1.5" stroke="#000" fill="#ffffff"/>
  <rect id="YG550H01_YC_0269" height="34" width="46" y="534.740227" x="608.907043" stroke-width="1.5" stroke="#000" fill="#ffffff"/>
  <rect id="YG550H01_YC_0277" height="34" width="46" y="534.740227" x="663.138031" stroke-width="1.5" stroke="#000" fill="#ffffff"/>
  <rect id="YG550H01_YC_0285" height="34" width="46" y="534.740227" x="718.86953" stroke-width="1.5" stroke="#000" fill="#ffffff"/>
  <rect id="YG550H01_YC_0293" height="34" width="46" y="534.740227" x="771.10936" stroke-width="1.5" stroke="#000" fill="#ffffff"/>
  <rect id="YG550H01_YC_0301" height="34" width="46" y="534.740227" x="825.698734" stroke-width="1.5" stroke="#000" fill="#ffffff"/> -->
  
  
  <!-- <rect id="YG550H01_YC_0262" height="34" width="46" y="492.728325" x="554.897785" stroke-width="1.5" stroke="#000" fill="#ffffff"/>
  <rect id="YG550H01_YC_0270" height="34" width="46" y="492.728325" x="608.907043" stroke-width="1.5" stroke="#000" fill="#ffffff"/>
  <rect id="YG550H01_YC_0278" height="34" width="46" y="492.728325" x="663.138031" stroke-width="1.5" stroke="#000" fill="#ffffff"/>
  <rect id="YG550H01_YC_0286" height="34" width="46" y="492.728325" x="718.86953" stroke-width="1.5" stroke="#000" fill="#ffffff"/>
  <rect id="YG550H01_YC_0294" height="34" width="46" y="492.728325" x="771.10936" stroke-width="1.5" stroke="#000" fill="#ffffff"/>
  <rect id="YG550H01_YC_0302" height="34" width="46" y="492.728325" x="825.698734" stroke-width="1.5" stroke="#000" fill="#ffffff"/> -->
  
  
  <!-- <rect id="YG550H01_YC_0263" height="34" width="46" y="448.716961" x="554.897785" stroke-width="1.5" stroke="#000" fill="#ffffff"/>
  <rect id="YG550H01_YC_0271" height="34" width="46" y="448.716961" x="608.907043" stroke-width="1.5" stroke="#000" fill="#ffffff"/>
  <rect id="YG550H01_YC_0279" height="34" width="46" y="448.716961" x="663.138031" stroke-width="1.5" stroke="#000" fill="#ffffff"/>
  <rect id="YG550H01_YC_0287" height="34" width="46" y="448.716961" x="718.86953" stroke-width="1.5" stroke="#000" fill="#ffffff"/>
  <rect id="YG550H01_YC_0295" height="34" width="46" y="448.716961" x="771.10936" stroke-width="1.5" stroke="#000" fill="#ffffff"/>
  <rect id="YG550H01_YC_0303" height="34" width="46" y="448.716961" x="825.698734" stroke-width="1.5" stroke="#000" fill="#ffffff"/> -->
  
  
  <!-- <rect id="YG550H01_YC_0256" height="34" width="46" y="404.535519" x="499.816029" stroke-width="1.5" stroke="#000" fill="#ffffff"/>
  <rect id="YG550H01_YC_0264" height="34" width="46" y="404.535519" x="554.897785" stroke-width="1.5" stroke="#000" fill="#ffffff"/>
  <rect id="YG550H01_YC_0272" height="34" width="46" y="404.535519" x="608.907043" stroke-width="1.5" stroke="#000" fill="#ffffff"/>
  <rect id="YG550H01_YC_0280" height="34" width="46" y="404.535519" x="663.138031" stroke-width="1.5" stroke="#000" fill="#ffffff"/>
  <rect id="YG550H01_YC_0288" height="34" width="46" y="404.535519" x="718.86953" stroke-width="1.5" stroke="#000" fill="#ffffff"/>
  <rect id="YG550H01_YC_0296" height="34" width="46" y="404.535519" x="771.10936" stroke-width="1.5" stroke="#000" fill="#ffffff"/>
  <rect id="YG550H01_YC_0304" height="34" width="46" y="404.535519" x="825.698734" stroke-width="1.5" stroke="#000" fill="#ffffff"/> -->
  
  
  <!-- <rect id="YG550H01_YC_0257" height="34" width="46" y="360.433365" x="498.816029" stroke-width="1.5" stroke="#000" fill="#ffffff"/>
  <rect id="YG550H01_YC_0265" height="34" width="46" y="360.433365" x="553.897785" stroke-width="1.5" stroke="#000" fill="#ffffff"/>
  <rect id="YG550H01_YC_0273" height="34" width="46" y="360.433365" x="607.907043" stroke-width="1.5" stroke="#000" fill="#ffffff"/>
  <rect id="YG550H01_YC_0281" height="34" width="46" y="360.433365" x="662.138031" stroke-width="1.5" stroke="#000" fill="#ffffff"/>
  <rect id="YG550H01_YC_0289" height="34" width="46" y="360.433365" x="717.86953" stroke-width="1.5" stroke="#000" fill="#ffffff"/>
  <rect id="YG550H01_YC_0297" height="34" width="46" y="360.433365" x="770.10936" stroke-width="1.5" stroke="#000" fill="#ffffff"/>
  <rect id="YG550H01_YC_0305" height="34" width="46" y="360.433365" x="824.698734" stroke-width="1.5" stroke="#000" fill="#ffffff"/> -->
  
  
 </g>
</svg>